# xmcd CD database file
#
# Track frame offsets:
#	150
#	27982
#	55070
#	87487
#	107727
#	134625
#	161112
#
# Disc length: 2672 seconds
#
# Revision: 0
# Processed by: cddbd v1.5.1PL2 Copyright (c) Steve Scherf et al.
# Submitted via: CDex 1.50
#
DISCID=5e0a6e07
DTITLE=Ryo Fukui - Ryo Fukui in New York
DYEAR=1999
DGENRE=Jazz
TTITLE0=Hot House
TTITLE1=All The Things You Are
TTITLE2=Red Carpet
TTITLE3=Boucing with Bud
TTITLE4=Embraceable You
TTITLE5=Just One of Those Things
TTITLE6=Mellow Dream
EXTD=YEAR: 1999
EXTT0=
EXTT1=
EXTT2=
EXTT3=
EXTT4=
EXTT5=
EXTT6=
PLAYORDER=
